<?xml version="1.0" standalone="no"?>
<!DOCTYPE svg PUBLIC "-//W3C//DTD SVG 20010904//EN"
 "http://www.w3.org/TR/2001/REC-SVG-20010904/DTD/svg10.dtd">
<svg version="1.0" xmlns="http://www.w3.org/2000/svg"
 width="400.000000pt" height="400.000000pt" viewBox="0 0 400.000000 400.000000"
 preserveAspectRatio="xMidYMid meet">
<metadata>
Created by potrace 1.14, written by Peter Selinger 2001-2017
</metadata>
<g transform="translate(0.000000,400.000000) scale(0.100000,-0.100000)"
fill="#000000" stroke="none">
<path d="M254 3800 c-12 -4 -31 -21 -43 -36 l-21 -27 0 -1734 c0 -1614 1
-1737 17 -1764 9 -15 30 -33 46 -39 20 -7 597 -10 1749 -10 1902 0 1774 -4
1797 62 15 44 15 3468 0 3501 -6 13 -23 31 -39 40 -26 16 -161 17 -1757 16
-950 0 -1738 -4 -1749 -9z m3306 -1800 l0 -1560 -1560 0 -1560 0 0 1560 0
1560 1560 0 1560 0 0 -1560z"/>
<path d="M1339 3150 c0 -8 -2 -406 -3 -885 -2 -478 -6 -886 -10 -905 -4 -19
-19 -60 -34 -90 -23 -46 -36 -59 -84 -83 -50 -26 -66 -29 -140 -28 -46 0 -121
9 -168 20 -47 10 -86 18 -88 16 -2 -2 -4 -53 -5 -114 l-2 -110 34 -6 c152 -29
337 -23 436 14 182 68 275 188 317 409 12 65 18 1746 6 1765 -5 8 -49 12 -133
12 -105 0 -125 -2 -126 -15z"/>
<path d="M2070 3140 c-1 -32 -1 -1732 0 -1785 l0 -40 545 0 545 0 0 97 0 98
-47 0 c-27 1 -213 1 -415 1 l-366 0 -1 817 c0 449 -1 822 -1 827 0 6 -50 10
-130 10 l-130 1 0 -26z"/>
</g>
</svg>
